PathFileType	4	(X/Y/Z)	C:/Users/opensim2020/Desktop/walking_exp_matlab/subject02_walking05_straight_04.trc	
DataRate	CameraRate	NumFrames	NumMarkers	Units	OrigDataRate	OrigDataStartFrame	OrigNumFrames	
100.00	100.00	7	42	mm	100.00	2901	220	
Frame#	Time	LFHD			RFHD			LBHD			RBHD			C7			T10			CLAV			STRN			RBAK			LSHO			LUPA			LELB			LFRM			LWRA			LWRB			LFIN			RSHO			RUPA			RELB			RFRM			RWRA			RWRB			RFIN			LASI			RASI			LPSI			RPSI			LTHI			LKNE			LTIB			LANK			LHEE			LTOE			RTHI			RKNE			RTIB			RANK			RHEE			RTOE			*39			*40			*41			
		X1	Y1	Z1	X2	Y2	Z2	X3	Y3	Z3	X4	Y4	Z4	X5	Y5	Z5	X6	Y6	Z6	X7	Y7	Z7	X8	Y8	Z8	X9	Y9	Z9	X10	Y10	Z10	X11	Y11	Z11	X12	Y12	Z12	X13	Y13	Z13	X14	Y14	Z14	X15	Y15	Z15	X16	Y16	Z16	X17	Y17	Z17	X18	Y18	Z18	X19	Y19	Z19	X20	Y20	Z20	X21	Y21	Z21	X22	Y22	Z22	X23	Y23	Z23	X24	Y24	Z24	X25	Y25	Z25	X26	Y26	Z26	X27	Y27	Z27	X28	Y28	Z28	X29	Y29	Z29	X30	Y30	Z30	X31	Y31	Z31	X32	Y32	Z32	X33	Y33	Z33	X34	Y34	Z34	X35	Y35	Z35	X36	Y36	Z36	X37	Y37	Z37	X38	Y38	Z38	X39	Y39	Z39	X40	Y40	Z40	X41	Y41	Z41	X42	Y42	Z42	

166	1.650	1536.81921	-554.84070	1690.64600	1394.77673	-535.32874	1671.63000	1561.74524	-413.97668	1642.73499	1421.30859	-382.92514	1625.18091	1485.94617	-331.42746	1499.78027	1469.85974	-275.33414	1220.43616	1498.20605	-467.49091	1425.16663	1490.70129	-516.37531	1254.79944	1418.40820	-270.50662	1322.25867	1666.19812	-399.43420	1469.03955	1762.93481	-430.37067	1278.69629	1792.46130	-484.35654	1149.27637	1799.08057	-571.24701	1046.51440	1757.24280	-686.32330	982.38257	1793.31226	-652.65051	955.15088	1797.13843	-709.49506	922.76160	1300.26147	-408.93228	1463.63525	1218.35425	-352.11230	1280.97473	1198.87866	-344.30051	1134.71130	1174.64478	-356.71472	1015.73706	1187.29456	-392.11972	883.74420	1158.61035	-343.33817	887.05225	1153.30310	-371.95691	819.64673	1627.05701	-493.33618	958.18011	1369.65149	-528.07605	951.93134	1515.24292	-295.14493	1002.18604	1402.46973	-303.77698	1000.38696	1660.21143	-361.38214	659.63867	1624.47900	-284.07394	471.31946	1620.82434	-168.03578	314.22855	1583.33276	-99.68273	98.45582	1532.41602	-58.27807	81.91070	1593.75757	-243.78230	30.30319	1280.37378	-527.78619	657.00128	1321.75647	-595.78363	461.55942	1311.51855	-613.91321	274.98141	1342.25854	-663.67395	86.41549	1400.71338	-657.63379	25.55398	1315.09399	-822.53583	77.82761	1457.03430	-457.91800	1774.71338	-3360.27319	2845.00610	1033.70020			 
167	1.660	1534.32446	-564.80078	1689.64026	1392.26648	-545.25250	1670.58813	1559.36035	-423.98380	1641.61731	1418.93201	-392.85428	1623.97510	1483.55005	-341.68295	1498.45642	1467.34473	-286.51489	1218.82239	1495.79456	-477.60297	1424.03259	1488.66211	-527.44849	1254.00891	1416.05750	-281.62750	1320.65747	1663.92578	-409.70541	1467.77783	1759.97766	-439.16949	1276.68896	1789.30176	-491.46381	1146.75439	1796.23755	-577.24951	1043.07959	1755.12280	-692.11823	978.02673	1790.70496	-657.84521	951.00305	1794.79456	-714.20551	917.94501	1297.73462	-419.43411	1462.40417	1216.47717	-361.61133	1280.00818	1196.68677	-354.44934	1133.62354	1172.17163	-366.86237	1014.82806	1184.57495	-402.23370	882.75519	1156.22607	-353.27740	886.02466	1151.00012	-380.94125	818.30438	1625.24756	-505.29523	957.41077	1368.26147	-540.01978	951.40863	1512.55713	-306.90323	1000.66675	1400.08191	-315.82330	999.06641	1659.11548	-371.39221	659.18634	1623.98584	-293.11435	471.50787	1620.24841	-174.03496	316.75174	1583.69849	-101.49661	102.02266	1532.51917	-60.34447	86.31073	1593.99622	-243.93896	30.26087	1278.54626	-541.71698	656.61475	1320.43530	-605.84387	459.62189	1311.39709	-620.33783	272.17499	1342.77905	-667.06573	83.78692	1401.00269	-658.03632	23.92711	1316.11926	-824.87122	70.71061	1454.56604	-467.70721	1773.62109	-3357.29468	2845.78516	1033.88782			 
168	1.670	1531.77063	-574.91705	1688.82434	1389.68542	-555.33514	1669.64758	1556.58997	-434.29694	1640.50659	1416.71863	-403.07294	1622.85669	1481.06519	-352.04733	1497.25024	1464.76929	-297.71747	1217.33801	1493.52698	-488.49094	1423.26733	1486.48047	-538.57227	1253.33423	1413.88867	-292.26743	1319.06189	1661.55701	-419.91534	1466.57361	1757.20837	-447.58414	1275.01367	1785.96716	-498.52246	1144.36682	1793.25134	-583.00885	1039.61707	1752.97656	-697.39569	973.44171	1787.60059	-662.47479	946.09650	1792.30029	-718.25519	912.52905	1294.95178	-430.05774	1461.29028	1213.97461	-372.57095	1279.02942	1194.17688	-365.00992	1132.59924	1169.51697	-377.52811	1013.93286	1181.66394	-412.83295	881.71344	1153.78613	-363.61795	884.93518	1148.12769	-391.53928	817.58783	1623.37598	-517.00262	956.50122	1366.23840	-552.64722	951.53009	1509.81763	-318.90970	999.17975	1397.40930	-328.05664	997.85913	1657.89490	-381.78857	658.75195	1623.39514	-302.61295	471.70990	1619.48865	-180.34262	319.36374	1584.11487	-103.56793	105.92955	1532.99854	-62.65769	91.41950	1594.26367	-244.04599	30.10904	1276.78918	-554.80145	655.88605	1318.53149	-615.32025	457.84903	1312.49231	-627.20898	269.84680	1343.48071	-671.16510	82.27338	1401.76025	-660.89056	26.22704	1315.04138	-829.71393	61.11960	1451.90039	-477.61407	1772.59265	-3360.25098	2845.15674	1033.80432			 
169	1.680	1529.01892	-585.15460	1688.55542	1387.05225	-565.58069	1669.28906	1554.33044	-444.45554	1640.10999	1414.25427	-413.22192	1622.20105	1478.48535	-361.96613	1496.19397	1462.12634	-308.75064	1216.64551	1491.09204	-498.96964	1422.72522	1484.21582	-549.51886	1253.22473	1411.69055	-302.90723	1318.20813	1659.22485	-430.09229	1465.56909	1754.14941	-456.18091	1273.34094	1782.41821	-505.46667	1142.05566	1790.10608	-588.34192	1036.16260	1750.58643	-702.11609	968.28644	1785.29333	-666.50140	941.73199	1789.94629	-721.82892	907.16724	1292.71448	-439.97562	1460.45691	1211.69226	-382.83411	1277.95605	1191.89636	-375.25397	1131.70190	1167.59875	-387.58154	1012.72546	1178.82446	-423.67670	881.00549	1151.33606	-374.12662	884.04095	1145.29395	-402.15146	816.54828	1621.48059	-528.75000	955.65088	1364.09570	-564.82776	951.78210	1506.96887	-331.01575	997.90045	1394.61169	-340.42249	996.89679	1656.59473	-392.69254	658.42206	1622.71802	-312.61407	472.15814	1618.80457	-187.09235	322.42386	1584.86060	-106.13258	110.37090	1533.50330	-65.55910	97.14605	1594.50012	-244.24696	30.04965	1274.87512	-566.30762	656.20959	1316.13757	-625.07556	457.40237	1313.35242	-636.20551	269.37030	1340.62756	-678.09460	82.98490	1399.87036	-664.41809	29.13470	1313.64893	-836.41180	53.54975	1449.18274	-487.68347	1772.14099	-3360.17993	2845.06030	1033.88953			 
170	1.690	1526.11633	-595.45020	1688.68323	1384.15979	-575.68616	1669.25574	1551.59473	-454.93454	1640.25720	1411.43408	-423.41309	1622.13037	1475.79846	-371.92120	1495.64551	1459.80994	-319.73712	1216.15588	1488.65625	-509.38486	1422.88013	1481.92908	-560.47736	1253.50232	1409.22498	-313.72943	1317.69617	1656.99121	-440.03448	1465.00806	1751.14893	-464.79816	1271.91907	1778.72388	-512.41699	1139.98669	1786.93323	-593.44647	1032.73865	1748.24548	-706.42438	963.09326	1782.48669	-670.03406	936.98596	1787.30176	-724.55975	901.18854	1289.85083	-450.62384	1459.83008	1208.97009	-394.02728	1276.99927	1189.29736	-386.02530	1130.82202	1164.79163	-398.55453	1011.94098	1175.95679	-434.81796	880.40338	1148.89783	-384.98792	883.21918	1142.46924	-413.43433	816.15033	1619.33167	-541.21753	955.09546	1361.98413	-576.66211	952.02466	1504.27795	-343.20517	996.99365	1391.74243	-352.92453	996.76813	1655.40894	-404.00461	658.44629	1622.26672	-323.32895	472.82153	1618.18970	-194.51340	325.98856	1585.65430	-109.24145	115.35468	1534.21130	-69.07362	103.31464	1594.78577	-244.54524	30.10756	1272.22046	-576.90326	657.07874	1313.01233	-636.53424	458.86447	1307.95117	-646.64539	270.80093	1336.97168	-685.18475	82.40176	1396.72253	-667.32507	31.19210	1314.01563	-842.45941	47.89496	1446.21448	-497.91864	1772.05811						 
171	1.700	1523.23694	-605.84253	1688.99084	1381.27844	-585.80969	1669.25574	1548.94629	-465.28387	1640.61926	1408.78638	-433.56894	1622.27759	1473.27295	-382.55865	1495.86108	1457.70776	-330.68396	1215.72546	1486.09937	-519.72729	1423.21228	1479.52612	-571.61713	1254.07959	1406.55713	-324.42386	1317.31714	1654.76611	-449.83829	1464.74829	1747.62500	-473.22198	1270.67224	1774.84448	-519.32874	1138.18469	1783.40320	-598.29865	1029.23010	1745.74316	-710.04413	957.49561	1779.54663	-672.80585	932.17957	1784.65015	-726.82507	895.22125	1287.27625	-460.71631	1459.44287	1206.35474	-404.93237	1276.46521	1186.82739	-396.88635	1130.26538	1162.24329	-409.24686	1011.53394	1173.00183	-446.31540	879.99463	1146.38647	-396.08133	882.74768	1139.61536	-424.65540	815.77417	1616.58301	-553.81549	954.55188	1359.59570	-588.64520	952.72620	1501.85547	-355.61780	996.73334	1388.82043	-365.37881	997.54266	1653.95239	-415.89597	658.72351	1622.19739	-334.88879	473.77197	1617.73242	-202.90425	329.83939	1586.55066	-112.93250	120.86108	1534.91211	-73.29601	110.58753	1595.10193	-244.85875	30.10777	1269.47034	-586.84875	657.76074	1310.63708	-648.20581	460.69894	1303.43457	-657.88879	273.16653	1334.40454	-690.06891	82.50936	1394.72729	-668.55383	32.39058	1314.66614	-846.44678	42.58591	1443.44653	-508.09702	1772.29468						 
172	1.710	1520.26721	-616.23718	1689.16333	1378.31372	-595.90497	1669.30127	1546.43005	-475.47668	1641.05322	1406.44336	-443.66403	1622.63196	1470.78662	-392.74326	1496.24780	1455.79297	-341.67975	1215.57361	1483.69763	-530.10730	1423.66968	1476.98950	-582.70935	1254.85803	1403.46606	-335.76248	1317.15686	1652.52966	-459.76489	1464.77258	1744.07703	-481.96671	1269.72534	1770.75757	-526.17010	1136.72729	1779.92444	-602.69171	1026.19470	1743.20166	-713.09357	951.97949	1776.76221	-675.04175	927.43152	1782.26147	-727.91736	889.31628	1284.57776	-471.09436	1459.46790	1203.68616	-415.94077	1276.17334	1184.21973	-408.38678	1130.09863	1159.63184	-420.86203	1011.53638	1170.06421	-458.31857	880.11871	1143.93640	-407.86661	882.60925	1136.72937	-436.55267	815.88739	1613.53796	-566.57892	954.31512	1356.78784	-600.79712	953.97345	1499.72229	-368.28375	997.16974	1386.12427	-377.60101	998.96057	1652.29895	-428.29257	658.87372	1622.07751	-347.86740	474.59628	1617.47778	-212.43523	333.90662	1587.30042	-117.31049	126.81368	1535.30066	-78.68230	118.10249	1595.46301	-245.11424	30.00612	1267.01453	-596.98792	658.96796	1309.18213	-660.86829	462.48724	1300.47754	-668.16119	274.88379	1334.52429	-693.05707	83.05492	1394.54773	-669.20154	32.91349	1314.72339	-847.41339	39.36660	1440.53955	-518.46588	1772.58777						 
